<svg id="Icons" height="512" viewBox="0 0 74 74" width="512" xmlns="http://www.w3.org/2000/svg"><path d="m28 29a1 1 0 0 1 -.707-.293l-25-25a1 1 0 0 1 1.414-1.414l25 25a1 1 0 0 1 -.707 1.707z"/><path d="m3 15.4a1 1 0 0 1 -1-1v-11.4a1 1 0 0 1 1-1h11.4a1 1 0 0 1 0 2h-10.4v10.4a1 1 0 0 1 -1 1z"/><path d="m3 72a1 1 0 0 1 -.707-1.707l25-25a1 1 0 0 1 1.414 1.414l-25 25a1 1 0 0 1 -.707.293z"/><path d="m14.4 72h-11.4a1 1 0 0 1 -1-1v-11.4a1 1 0 0 1 2 0v10.4h10.4a1 1 0 0 1 0 2z"/><path d="m56.86 57.86a1 1 0 0 1 -.707-.293l-2.1-2.1a1 1 0 0 1 1.414-1.414l2.1 2.1a1 1 0 0 1 -.707 1.707z"/><path d="m49.74 50.74a1 1 0 0 1 -.707-.293l-3.74-3.74a1 1 0 0 1 1.414-1.414l3.74 3.74a1 1 0 0 1 -.707 1.707z"/><path d="m71 72a1 1 0 0 1 -.707-.293l-9.12-9.12a1 1 0 0 1 1.414-1.414l9.12 9.12a1 1 0 0 1 -.707 1.707z"/><path d="m71 72h-11.4a1 1 0 1 1 0-2h10.4v-10.4a1 1 0 1 1 2 0v11.4a1 1 0 0 1 -1 1z"/><path d="m46 29a1 1 0 0 1 -.707-1.707l25-25a1 1 0 0 1 1.414 1.414l-25 25a1 1 0 0 1 -.707.293z"/><path d="m71 15.4a1 1 0 0 1 -1-1v-10.4h-10.4a1 1 0 0 1 0-2h11.4a1 1 0 0 1 1 1v11.4a1 1 0 0 1 -1 1z"/></svg>